<svg version="1.2" xmlns="http://www.w3.org/2000/svg" viewBox="0 0 600 600" width="600" height="600">
	<title>271-svg</title>
	<style>
		.s0 { fill: #ef7847;stroke: #ef7847;stroke-linecap: round;stroke-linejoin: round;stroke-width: 11.8 } 
		.s1 { fill: none;stroke: #ffffff;stroke-linecap: round;stroke-linejoin: round;stroke-width: 20 } 
		.s2 { fill: #e1e4e5 } 
	</style>
	<path id="Layer" fill-rule="evenodd" class="s0" d="m58.1 149.4h182.1c23.4 0 42.4 19 42.4 42.4v338.7l-133.3-69.3l-133.5 69.3v-338.7c0-23.4 18.9-42.4 42.3-42.4z" />
	<path id="Layer" class="s1" d="m106.8 297.6h84.7" />
	<path id="Layer" class="s1" d="m149.2 255.3v84.7" />
	<path id="Layer" fill-rule="evenodd" class="s0" d="m363.6 70h182.1c23.4 0 42.3 18.9 42.3 42.3v338.8l-133.2-69.3l-133.5 69.3v-338.8c0-23.4 18.9-42.3 42.3-42.3z" />
	<path id="Layer" class="s1" d="m412.3 218.2h84.7" />
	<path id="Layer" class="s1" d="m454.7 175.9v84.6" />
	<path id="Layer" class="s2" d="m285 100c0.8 0.8 0.8 2.3 0 3.1l-24 24c-0.9 0.9-2.3 0.9-3.2 0c-0.9-0.9-0.9-2.3 0-3.2l24-23.9c0.9-0.9 2.3-0.9 3.2 0z" />
	<path id="Layer" class="s2" d="m270.2 99.9c0.9 0.8 0.9 2.2 0 3.1l-6.9 6.9c-0.8 0.9-2.3 0.9-3.1 0c-0.9-0.8-0.9-2.3 0-3.1l6.9-6.9c0.9-0.9 2.3-0.9 3.1 0z" />
	<path id="Layer" class="s2" d="m440.3 449.2c-0.8-0.7-0.8-2 0-2.7l20.6-20.6c0.8-0.8 2-0.8 2.7 0c0.8 0.7 0.8 1.9 0 2.7l-20.6 20.6c-0.7 0.8-2 0.8-2.7 0z" />
	<path id="Layer" class="s2" d="m452.9 449.3c-0.7-0.8-0.7-2 0-2.7l6-6c0.7-0.7 2-0.7 2.7 0c0.8 0.8 0.8 2 0 2.7l-5.9 6c-0.8 0.7-2 0.7-2.8 0z" />
	<path id="Layer" class="s2" d="m319.4 505.8c-1.3-1.2-1.3-3.3 0-4.5l34.3-34.3c1.2-1.2 3.2-1.2 4.5 0c1.2 1.3 1.2 3.3 0 4.5l-34.3 34.3c-1.2 1.3-3.3 1.3-4.5 0z" />
	<path id="Layer" class="s2" d="m340.4 506c-1.2-1.3-1.2-3.3 0-4.6l9.9-9.9c1.3-1.2 3.3-1.2 4.5 0c1.3 1.3 1.3 3.3 0 4.6l-9.8 9.9c-1.3 1.2-3.3 1.2-4.6 0z" />
</svg>